# xmcd
#
# Track frame offsets: 
#        150
#        9330
#        25175
#        49325
#        86370
#        105280
#        138342
#        158362
#        174882
#        205837
#
# Disc length: 3085 seconds
#
# Revision: 2
# Processed by: cddbd v1.5.2PL0 Copyright (c) Steve Scherf et al.
# Submitted via: ExactAudioCopy v1.3
#
DISCID=660c0b0a
DTITLE=Randy Waldman - Timing Is Everything (King Records ‎– KICJ 461)
DYEAR=2003
DGENRE=Jazz
TTITLE0=The Trolley Song
TTITLE1=Swanee
TTITLE2=The Tender Trap
TTITLE3=Footprints
TTITLE4=The Minute Waltz
TTITLE5=Body and Soul
TTITLE6=Nice Work If You Can Get It
TTITLE7=Whistle While You Work
TTITLE8=Girl From Ipanema
TTITLE9=I Thought About You
EXTD=YEAR: 2003
EXTT0=
EXTT1=
EXTT2=
EXTT3=
EXTT4=
EXTT5=
EXTT6=
EXTT7=
EXTT8=
EXTT9=
PLAYORDER=
